<svg t="1731572476111" class="icon" viewBox="0 0 1024 1024" version="1.1" xmlns="http://www.w3.org/2000/svg" p-id="3628"
  width="200" height="200">
  <path
    d="M529.592692 1023.697213A511.848607 511.848607 0 1 1 1023.697213 494.33201 512.303583 512.303583 0 0 1 529.592692 1023.697213zM497.289357 90.995308a422.218228 422.218228 0 1 0 438.142408 406.294049A422.218228 422.218228 0 0 0 497.289357 90.995308z"
    fill="#1296db" p-id="3629"></path>
  <path
    d="M755.261055 126.938454L511.848607 394.009683l359.203977-176.075921-115.791529-90.995308zM930.199534 298.237121l-406.066561 133.763103 442.692173-15.241714-36.625612-118.521389zM980.474442 495.924428l-442.692173-29.118499L966.825146 618.768093l13.649296-122.843665zM392.189777 265.478811l-106.691999 120.341294h210.199161l-103.507162-120.341294zM297.782145 385.820105h34.578217v108.284417h-34.578217zM449.061844 385.820105h34.578217v108.284417h-34.578217zM371.260856 425.403064h38.900494v68.701458h-38.900494zM481.365178 652.436357l-179.033268-64.37918 3.412324-67.564016h169.706249l5.914695 131.943196zM484.550014 718.407955l-185.630428-66.654063 2.047395-34.805705 182.218104 70.521364 1.364929 30.938404zM487.279873 777.099929l-191.317634-68.701458 1.819906-35.033193 188.132799 73.023734 1.364929 30.710917zM490.237221 835.564414l-197.23233-70.521363 2.047395-35.033194 193.820005 75.071129 1.36493 30.483428zM495.696939 1004.36071l-212.019067-67.564016 7.734601-143.31761 200.417166 77.800988 3.8673 133.080638z"
    fill="#1296db" p-id="3630"></path>
  <path d="M287.772661 494.104522h205.876884v37.535564h-205.876884z" fill="#1296db" p-id="3631"></path>
</svg>