<svg t="1731574418109" class="icon" viewBox="0 0 1024 1024" version="1.1" xmlns="http://www.w3.org/2000/svg" p-id="20370" width="200" height="200"><path d="M237.952 454.848a26.624 26.624 0 0 1 5.248-3.648 18.592 18.592 0 0 0-5.248 3.648z m95.232 129.248c1.92 13.472 7.68 133.248 88.512 200a494.88 494.88 0 0 0 49.568 5.184c8.96-19.2 41.984-17.728 63.52-12.8a212.736 212.736 0 0 1-69.632-56.896 142.912 142.912 0 0 1-47.104-84.992c43.136 59.84 78.784 112 157.216 138.432 59.36 19.904 128.672-9.12 174.272-41.152a200.256 200.256 0 0 0 43.68-53.76 455.744 455.744 0 0 0 68.64-275.872 306.144 306.144 0 0 0-16-110.272c-14.496-29.056-63.488-55.04-92.16-28.8a34.24 34.24 0 0 1-0.512-7.872c-4.576 4.288-7.36 7.424-7.36 7.424a38.688 38.688 0 0 1-3.904-15.584 49.632 49.632 0 0 1 48-48 277.568 277.568 0 0 0-47.328-50.016 335.68 335.68 0 0 0-193.504-7.104 257.92 257.92 0 0 0-191.2 172.8 450.72 450.72 0 0 0-12.416 72.416c-0.992 28.288 13.312 52.96 14.4 83.744-7.648 12.608-31.008 14.176-47.168 13.312a218.752 218.752 0 0 0-4.352-18.112 165.056 165.056 0 0 0-40.48-16 55.008 55.008 0 0 1 32.288 65.216c-11.936-6.816-14.784-36.8-28.8-37.664-20.032-1.216-16.384 38.912-16.288 62.4a73.312 73.312 0 0 1-6.08-70.816c-9.088-4.448-14.208 1.952-19.2 6.944-7.104 33.152-17.504 59.936 1.984 93.44a55.488 55.488 0 0 0 45.248 19.2c18.144-1.792 22.592-19.968 42.368-19.776a16.416 16.416 0 0 1 13.792 14.976zM539.552 646.4l-9.6-1.952s-10.048-35.2-5.216-41.792c2.56-3.424 16.64-8.576 36.352 0.896-0.128 0.032-23.488 3.936-21.536 42.848z m182.592 42.912a168.64 168.64 0 0 1-109.632-0.448 149.984 149.984 0 0 1-41.056-45.664c-4.96-6.4-29.664-22.656-0.384-22.688 22.944 57.6 101.76 50.944 168.224 49.376a35.552 35.552 0 0 1-17.152 19.456z m9.6-51.2a128.512 128.512 0 0 1 0-34.016 273.216 273.216 0 0 0 94.72-37.92 109.6 109.6 0 0 1-94.752 71.872z m88.192-258.336c-5.856 1.952-43.84 24.384-40.896-3.904a43.136 43.136 0 0 1 32.832-34.464 97.184 97.184 0 0 1 0-12.8h2.528a548.672 548.672 0 0 0 37.504 73.28c-10.144 23.616-76.8 44.48-75.712 2.112 14.4-6.4 39.264-1.28 52.032-9.312-3.008-8.224-6.4-16-9.6-24.192z m-165.984 152a23.008 23.008 0 0 1 1.472 3.2c2.912-16.224 8.288-35.2 17.536-32.416a21.888 21.888 0 0 1 16 20.416 221.056 221.056 0 0 0-30.336 23.616c2.08 9.6 4.608 19.2 16.736 21.376 35.392 6.048 76.576-21.664 102.048-31.328 15.776-26.624-1.376-36.416-15.584-53.536-29.12-35.2-68.16-78.592-66.752-131.2 11.776-8.544 12.8 13.024 14.464 16.96a480.192 480.192 0 0 0 81.376 111.552c6.848 7.488 18.144 14.688 19.392 19.648 3.616 14.432-9.408 31.712-7.904 41.28a210.784 210.784 0 0 1-142.912 44.8 42.304 42.304 0 0 1-5.6-54.464z m62.656 74.272A157.856 157.856 0 0 1 719.04 640c-57.952 2.88-126.464-11.456-141.664-52.128a329.12 329.12 0 0 0 139.2 18.08zM580.416 329.312a222.528 222.528 0 0 0 31.264 58.528c7.296 7.104 21.44 15.744 14.432 35.488a44.992 44.992 0 0 1-20.544 17.088c-25.28 7.456-84.192 1.536-64.256-29.984 20.896 0.96 49.024 13.568 64.64-1.6a315.136 315.136 0 0 1-10.304-17.632c-16 10.112-59.968 10.56-59.968-15.328 0-27.264 42.848-33.088 42.848-33.088l0.32 0.768a35.52 35.52 0 0 1 1.536-14.336z m-103.168-93.696c38.24-26.08 57.6-11.2 67.2 6.016a18.176 18.176 0 0 1 8.768 26.496c-53.056-12.352-79.424 22.208-95.52 58.048-4.128 7.488-4.352 2.176-6.72-4.352a12.544 12.544 0 0 1-1.952-4.352 17.632 17.632 0 0 0-2.944-3.872c-7.68-7.904-11.68-48.768 31.168-77.984z" fill="#F0D6B7" p-id="20371"></path><path d="M201.056 936.96h280.096c-1.28-4.32-2.528-8.576-3.776-12.608a389.248 389.248 0 0 1-15.232-62.336 674.528 674.528 0 0 1-98.784-52.96 75.296 75.296 0 0 1-7.68-8.224l-168.512 75.296s6.048 24.128 13.888 60.832z" fill="#335061" p-id="20372"></path><path d="M301.856 224a68 68 0 0 1 14.944-2.816 122.144 122.144 0 0 0 23.904 0.928c15.808-3.936 29.184-39.392 41.12-52.608a362.656 362.656 0 0 1 30.112-24.832A235.072 235.072 0 0 0 301.856 224z m-72.192 178.752a68.704 68.704 0 0 1 100.64 55.904c22.208-0.576 8.288-27.712 4.288-45.216-11.808-51.456 15.584-106.88 6.144-155.552C217.024 276.384 224 371.392 229.664 402.752z" fill="#6D6B6D" p-id="20373"></path><path d="M423.968 123.232c-58.24 16.512-132.864 58.816-156.8 111.136A236.448 236.448 0 0 0 301.856 224a235.072 235.072 0 0 1 110.08-79.328 52.704 52.704 0 0 0 5.088-5.312c6.144-2.976 15.232-2.752 15.584-12-2.656-2.848-5.472-5.024-8.64-4.128zM240 287.52c-25.6 28.32-20.352 81.344-17.216 119.072a74.272 74.272 0 0 1 6.976-3.84c-5.76-31.328-12.608-126.368 111.072-144.864a89.92 89.92 0 0 0-4.544-15.776A141.088 141.088 0 0 0 240 287.52z" fill="#DCD9D8" p-id="20374"></path><path d="M333.184 584.096a16.416 16.416 0 0 0-13.44-14.976c10.72 21.376-16.512 28.096-19.2 43.36a122.784 122.784 0 0 0 4 26.624 363.232 363.232 0 0 0 46.24 107.68 101.792 101.792 0 0 0 71.04 37.312c-80.96-66.72-86.72-186.528-88.64-200z m355.616-61.28a21.888 21.888 0 0 0-16-20.416c-9.248-2.624-14.624 16.192-17.536 32.416a76.032 76.032 0 0 1 3.2 11.616 221.056 221.056 0 0 1 30.336-23.616z m90.208-147.008c-2.944 28.288 35.2 5.856 40.896 3.904l-1.376-9.152a103.52 103.52 0 0 1-6.688-29.216 43.136 43.136 0 0 0-32.832 34.464z m-243.36 0c0 25.888 43.872 25.44 59.968 15.328a129.696 129.696 0 0 1-16.8-47.648l-0.32-0.768s-42.848 5.824-42.848 33.088zM230.144 476.32a25.6 25.6 0 0 1-4 3.488 39.072 39.072 0 0 1 11.84-24.992 18.592 18.592 0 0 1 5.216-3.616 31.328 31.328 0 0 1 25.024-1.024 165.056 165.056 0 0 1 40.48 16c-6.176-21.248-16.768-40.416-38.656-42.816a65.088 65.088 0 0 0-70.4 62.816 123.456 123.456 0 0 0 32.48 83.424c-19.52-33.344-9.088-60.128-1.984-93.28zM549.28 142.176a335.68 335.68 0 0 1 193.504 7.104 132.064 132.064 0 0 0-15.68-10.528c-60.448-34.112-162.752-59.744-227.2-27.712-51.872 25.856-122.016 68.672-145.92 122.912a131.488 131.488 0 0 1 3.936 81.024 257.92 257.92 0 0 1 191.36-172.8z m192.736 105.12a38.688 38.688 0 0 0 3.904 15.584s2.784-3.2 7.36-7.424c0.992-23.488 27.68-36.864 58.624-27.712-7.104-9.152-14.304-18.848-21.792-28.448a49.632 49.632 0 0 0-48.096 48z m-291.072 74.56c2.368 6.4 2.624 11.84 6.72 4.352a11.136 11.136 0 0 1-6.72-4.352z" fill="#F7E4CD" p-id="20375"></path><path d="M449.024 317.504a47.552 47.552 0 0 1 3.648-24.256 90.112 90.112 0 0 1 79.04-56.16 36.768 36.768 0 0 1 12.8 4.576c-9.6-17.216-28.8-32-67.2-6.016-42.816 29.216-38.944 70.08-31.136 77.888a17.632 17.632 0 0 1 2.848 3.968z" fill="#F7E4CD" p-id="20376"></path><path d="M187.168 876.128l168.512-75.296c-12.352-14.336-34.528-41.6-38.4-40.224a770.528 770.528 0 0 0-179.52 111.52 647.552 647.552 0 0 1 25.92 64.832h37.376a1965.344 1965.344 0 0 0-13.888-60.832z" fill="#49728B" p-id="20377"></path><path d="M864 937.824a666.752 666.752 0 0 0 17.536-65.856c1.152-5.792 3.392-15.2 4.992-24.192l-92.352-68.608a163.936 163.936 0 0 1 4.16 124.8c3.2 11.904 14.528 16.48 19.2 27.2-1.088 1.92-2.176 3.808-3.2 5.728h47.232a4.768 4.768 0 0 1 2.432 0.928z m-81.888-39.456a34.592 34.592 0 0 0 5.504-12.192 34.592 34.592 0 0 1-5.504 12.192z m-26.368-132.096a30.336 30.336 0 0 1 16.448-3.392l-7.616-5.664a46.624 46.624 0 0 0-8.832 9.056z" fill="#335061" p-id="20378"></path><path d="M888.192 828.128c-2.368-17.184-25.6-29.92-37.504-40.512C828.8 768 815.104 750.72 792.352 732.384a140.512 140.512 0 0 1-27.808 24.832l7.616 5.664a29.824 29.824 0 0 1 21.952 16.32l92.288 68.576a74.848 74.848 0 0 0 1.792-19.648z" fill="#49728B" p-id="20379"></path><path d="M658.304 934.4a14.016 14.016 0 0 0 0.288 2.432h15.328a10.656 10.656 0 0 1 21.312 0H720v-0.96a661.952 661.952 0 0 0-38.4-18.976c-13.568-5.696-23.296 17.504-23.296 17.504z" fill="#FFFFFF" p-id="20380"></path><path d="M658.304 934.4s9.6-23.36 23.36-17.536c10.304 4.416 29.472 14.368 38.4 18.976 0.32-7.04 0.64-14.08 1.088-21.12-19.776 1.248-30.752-17.888-44.608-19.36-12.096-1.312-22.4 13.92-38.08 7.328-3.616 3.968-6.88 8.288-10.56 12.192a202.016 202.016 0 0 1 15.648 21.92h15.232a14.016 14.016 0 0 1-0.48-2.4z" fill="#DCD9D8" p-id="20381"></path><path d="M464.352 805.408a215.616 215.616 0 0 1-72.608-12.8 9.024 9.024 0 0 0 0.544 13.472 245.024 245.024 0 0 0 68.48 18.496 55.936 55.936 0 0 0 3.584-19.168z" fill="#FFFFFF" p-id="20382"></path><path d="M459.424 834.208a39.456 39.456 0 0 1 1.312-9.6 245.024 245.024 0 0 1-68.48-18.496 135.584 135.584 0 0 0 67.168 28.096z" fill="#DCD9D8" p-id="20383"></path><path d="M787.616 886.176a94.816 94.816 0 0 0 2.336-27.84 225.824 225.824 0 0 0-6.4-44.096 96 96 0 0 0-32.288 1.568c-9.6 1.952-19.488 3.904-21.408 15.584s3.904 17.536-1.952 27.264-15.584 3.904-25.312 9.6c-6.624 3.968-2.432 14.24 0.928 20.416a388.416 388.416 0 0 0 78.688 9.6 34.592 34.592 0 0 0 5.408-12.096z m-289.632 48.832l1.504 4.096c0.448 1.28 0.928 2.976 1.344 4.448l-0.288-3.744z" fill="#D33833" p-id="20384"></path><path d="M626.016 893.6l0.672-16.864a41.888 41.888 0 0 1-30.72-2.368c-29.984-16.352-1.6-11.52-12.224-33.216a103.552 103.552 0 0 0-39.168-11.68c-39.296 0-54.4-7.904-50.176 37.408 2.208 24.32 4.192 48.608 6.112 72.96 3.2 6.016 6.08 11.424 8.384 16a154.688 154.688 0 0 0 58.656-17.888 672.224 672.224 0 0 0 58.464-44.352z m14.848-23.2a164.315 164.315 0 0 1 2.048 9.92 22.4 22.4 0 1 0 13.696-41.92 30.496 30.496 0 0 1-15.744 32z" fill="#D33833" p-id="20385"></path><path d="M702.496 868.384c9.6-5.856 19.488 0 25.312-9.6s0-15.584 1.952-27.264 11.68-13.632 21.408-15.584a96 96 0 0 1 32.288-1.568 36 36 0 0 0-11.136-20.864c-23.904-13.952-65.792 26.4-85.28 34.976l-1.824 0.736a54.208 54.208 0 0 1 5.6 17.856A47.2 47.2 0 0 1 704 845.728a56.352 56.352 0 0 1 8.832 1.056c1.44 0.288 2.848 0.64 4.256 1.024a46.816 46.816 0 0 1 7.776 2.944 134.688 134.688 0 0 0-24.224 3.2 22.4 22.4 0 0 0-6.4 3.04 275.776 275.776 0 0 0-1.12 28.8q5.056 1.44 10.304 2.688c-3.36-5.856-7.552-16.128-0.928-20.096zM500.832 943.52c1.632 5.856 3.04 11.136 8.096 12.32-2.304-4.608-5.216-10.016-8.384-16z m-6.432-76.672c-4.128-45.312 10.88-37.408 50.176-37.408a103.552 103.552 0 0 1 39.168 11.68c10.624 21.696-17.76 16.864 12.224 33.216a41.888 41.888 0 0 0 30.72 2.368v-2.016a97.248 97.248 0 0 0-29.312-9.28 112 112 0 0 0-11.872-1.152 49.76 49.76 0 0 1 9.312-3.392 105.12 105.12 0 0 0 28.992-8.992c0-2.528 0.192-5.056 0.288-7.552a60.256 60.256 0 0 1-6.4-0.864 50.08 50.08 0 0 1-5.664-1.408 50.72 50.72 0 0 1-9.408-4.064c-5.696-3.2-10.592-6.912-16.8-10.304a290.464 290.464 0 0 0-77.056-28.192c-29.472-5.632-29.728 35.36-28.48 65.568 0 3.2 0.256 6.144 0.416 8.96a210.72 210.72 0 0 0 17.408 60.8l2.528 4.8c-2.016-24.128-4.032-48.448-6.24-72.768zM656.64 838.4a32.288 32.288 0 0 0-18.624 6.4 54.4 54.4 0 0 0 0.224 13.184c0.352 2.528 0.896 4.96 1.536 7.616l0.992 4.192v0.544A30.496 30.496 0 0 0 656.64 838.4z" fill="#EF3D3A" p-id="20386"></path><path d="M452.672 293.248a47.552 47.552 0 0 0-3.648 24.256 12.544 12.544 0 0 0 1.952 4.352 11.136 11.136 0 0 0 6.72 4.352c16-35.84 42.464-70.4 95.52-58.048a18.176 18.176 0 0 0-8.768-26.496 36.768 36.768 0 0 0-12.8-4.576 90.112 90.112 0 0 0-78.976 56.16z m323.392 110.816c-1.024 42.368 65.568 21.504 75.712-2.112a548.672 548.672 0 0 1-37.504-73.28h-2.528a97.184 97.184 0 0 0 0 12.8 103.52 103.52 0 0 0 6.688 29.216c3.04 8.192 6.56 16 9.6 24.192-12.704 7.904-37.632 2.88-51.968 9.184z m-170.176 4.672c-15.616 15.168-43.744 2.56-64.64 1.6-19.936 31.52 38.976 37.44 64.256 29.984a44.992 44.992 0 0 0 20.544-17.088c7.008-19.744-7.136-28.384-14.432-35.488a222.528 222.528 0 0 1-31.264-58.528 35.52 35.52 0 0 0-1.568 14.24 129.696 129.696 0 0 0 16.8 47.648 336.242 336.242 0 0 0 10.304 17.632zM659.36 586.08a210.784 210.784 0 0 0 142.912-44.8c-1.504-9.6 11.52-26.88 7.904-41.28-1.248-4.96-12.544-12.16-19.392-19.648A480.192 480.192 0 0 1 709.408 368.8c-1.696-3.936-2.72-25.6-14.464-16.96-1.408 52.544 37.632 96 66.752 131.2 14.208 17.12 31.36 26.912 15.584 53.536-25.6 9.6-66.656 37.408-102.048 31.328-12.128-2.08-14.656-11.68-16.736-21.376a76.032 76.032 0 0 0-3.2-11.616 23.008 23.008 0 0 0-1.472-3.2 42.304 42.304 0 0 0 5.536 54.368zM243.2 451.2a26.624 26.624 0 0 0-5.088 3.552 39.072 39.072 0 0 0-11.84 24.992 25.6 25.6 0 0 0 4-3.488c4.896-4.992 10.016-11.424 19.2-6.944a73.312 73.312 0 0 0 6.08 70.816c0-23.456-3.744-63.584 16.288-62.4 14.016 0.864 16.864 30.848 28.8 37.664a55.008 55.008 0 0 0-32.544-65.152 31.328 31.328 0 0 0-24.896 0.96zM731.776 604a128.512 128.512 0 0 0 0 34.016 109.6 109.6 0 0 0 94.784-71.968A273.216 273.216 0 0 1 731.776 604z m-12.736 36a157.856 157.856 0 0 0-2.464-34.112 329.12 329.12 0 0 1-139.2-17.984c15.2 40.704 83.712 55.04 141.664 52.096z m-147.968-19.52c-29.28 0-4.576 16.32 0.384 22.688a149.984 149.984 0 0 0 41.088 45.696 168.64 168.64 0 0 0 109.632 0.448 35.552 35.552 0 0 0 17.152-19.488c-66.496 1.6-145.312 8.224-168.256-49.344z" fill="#231F20" p-id="20387"></path><path d="M798.72 936.96a54.688 54.688 0 0 0-33.344-24.096 45.856 45.856 0 0 0-29.376 3.84c-0.256 6.4-0.576 13.28-0.992 20.224z" fill="#81B0C4" p-id="20388"></path><path d="M703.072 791.968c-21.952 1.952-47.776 11.936-72.064 13.408-2.208 0-4.416 0.192-6.592 0.192s-4.352 0-6.4-0.32a61.76 61.76 0 0 1-12.544-2.432 53.312 53.312 0 0 1-6.016-2.24c0 1.664-2.272 1.056-2.624 2.432a102.08 102.08 0 0 0 15.52 10.304 70.976 70.976 0 0 0 15.2 6.08 97.664 97.664 0 0 0 26.112 2.88c3.2 0 6.784 0 10.464-0.288 13.28-9.696 25.056-20.992 38.944-30.016z" fill="#F0D6B7" p-id="20389"></path><path d="M610.752 929.536l-11.232 7.456h16.864q-2.752-3.808-5.632-7.456z" fill="#81B0C4" p-id="20390"></path><path d="M149.792 952.608v-10.72a4.896 4.896 0 0 1 4.896-4.896h9.056a647.552 647.552 0 0 0-25.92-64.832 770.528 770.528 0 0 1 179.52-111.52c3.776-1.504 25.952 25.888 38.4 40.224a75.296 75.296 0 0 0 7.68 8.224 674.528 674.528 0 0 0 98.784 52.96 389.248 389.248 0 0 0 15.232 62.336c1.248 4.032 2.496 8.32 3.776 12.608h5.184a4.896 4.896 0 0 1 4.896 4.896v5.056h4.448a4.896 4.896 0 0 1 4.896 4.896V960h54.112v-8.16a4.896 4.896 0 0 1 4.896-4.896h24.96v-5.056a4.896 4.896 0 0 1 4.896-4.896h10.144l11.232-7.456q2.88 3.648 5.632 7.456h26.976a202.016 202.016 0 0 0-15.648-21.92c3.68-3.904 6.944-8.192 10.56-12.192 15.744 6.592 25.984-8.64 38.08-7.328 13.856 1.472 24.832 20.608 44.608 19.36-0.448 7.04-0.768 14.08-1.088 21.12v0.96h15.168c0.384-6.944 0.736-13.728 0.992-20.224a45.856 45.856 0 0 1 29.376-3.84 54.688 54.688 0 0 1 33.344 24.096h15.392c1.088-1.92 2.208-3.808 3.2-5.728-4.576-10.72-15.84-15.264-19.2-27.2a163.936 163.936 0 0 0-4.16-124.8 29.824 29.824 0 0 0-21.952-16.32 30.336 30.336 0 0 0-16.448 3.392 46.624 46.624 0 0 1 8.8-9.056 140.512 140.512 0 0 0 27.808-24.832c22.784 18.336 36.512 35.584 58.368 55.2 11.84 10.624 35.2 23.36 37.504 40.512a74.848 74.848 0 0 1-1.728 19.648c-1.632 8.992-3.84 18.4-4.992 24.192A666.752 666.752 0 0 1 864 937.824a4.8 4.8 0 0 1 2.304 4.064V960h11.776c8.256-25.856 16.352-52.32 24.512-79.648a198.624 198.624 0 0 0 15.296-69.984c-2.496-19.744-33.28-40.48-49.504-56.128-8.992-8.672-50.976-40.544-53.408-52.48s17.12-37.696 23.392-50.752a373.408 373.408 0 0 0 19.872-57.216c33.024-116.064 36.384-275.552-10.848-370.944a401.28 401.28 0 0 0-99.2-109.696c-73.6-55.744-210.016-61.92-298.848-29.216a431.392 431.392 0 0 0-70.4 30.048c-58.176 34.112-119.936 56.96-137.184 125.696-42.496 19.2-55.328 73.6-53.184 136.576a199.072 199.072 0 0 1 4.768 39.264c-1.184 5.888-9.152 13.408-10.752 17.216A169.6 169.6 0 0 0 202.08 579.68 103.2 103.2 0 0 0 270.976 624a146.176 146.176 0 0 0 14.304 53.504c5.44 11.936 25.76 33.376 18.272 48.608a223.584 223.584 0 0 1-47.84 30.912c-37.056 22.24-64 35.84-98.112 60.48-22.144 16-56.736 17.984-51.2 54.72a571.808 571.808 0 0 0 25.856 80.416c0.8 2.496 1.696 4.96 2.56 7.424h15.04zM417.024 139.36a52.704 52.704 0 0 1-5.088 5.312 362.656 362.656 0 0 0-30.112 24.832c-11.936 13.216-25.28 48.672-41.12 52.608a122.144 122.144 0 0 1-23.904-0.928A68 68 0 0 0 301.856 224a236.448 236.448 0 0 1-34.688 10.4c23.936-52.32 98.56-94.624 156.8-111.136 3.2-0.896 6.016 1.28 8.672 4.128-0.352 9.184-9.472 8.992-15.616 11.968z m-76.32 118.4c9.6 48.672-17.952 104.128-6.144 155.552 4 17.472 17.92 44.608-4.288 45.216a68.704 68.704 0 0 0-100.64-55.904 74.272 74.272 0 0 0-6.976 3.84c-3.2-37.728-8.512-90.752 17.216-119.072a141.088 141.088 0 0 1 96.288-45.408 89.92 89.92 0 0 1 4.544 15.904zM232.128 569.6a123.456 123.456 0 0 1-32.704-83.2 65.088 65.088 0 0 1 70.4-62.816c21.888 2.4 32.448 21.568 38.656 42.816a206.616 206.616 0 0 1 4.352 18.112c16.16 0.864 39.52-0.704 47.168-13.312-1.088-30.784-15.392-55.456-14.4-83.744a450.72 450.72 0 0 1 12.416-72.416 131.488 131.488 0 0 0-3.936-81.024c23.904-54.24 94.048-97.024 145.92-122.912 64.288-32 166.624-6.4 227.2 27.712a132.064 132.064 0 0 1 15.68 10.528 277.568 277.568 0 0 1 47.328 50.016c7.488 9.6 14.688 19.2 21.792 28.448-30.944-9.184-57.6 4.224-58.624 27.712a34.24 34.24 0 0 0 0.512 7.872c28.8-26.272 77.664-0.288 92.16 28.8a306.144 306.144 0 0 1 16 110.272 455.744 455.744 0 0 1-68.64 275.872 200.256 200.256 0 0 1-43.68 53.76c-45.6 32-114.912 61.056-174.272 41.152-78.432-26.336-114.08-78.592-157.216-138.432a142.912 142.912 0 0 0 47.104 84.992 212.736 212.736 0 0 0 69.632 56.896c-21.536-5.056-54.4-6.656-63.52 12.8a494.88 494.88 0 0 1-49.568-5.184 101.792 101.792 0 0 1-71.04-37.312 363.232 363.232 0 0 1-46.24-107.68 122.784 122.784 0 0 1-4-26.624c2.816-15.296 30.048-21.984 19.2-43.36-19.776-0.192-24.224 17.984-42.368 19.776a55.488 55.488 0 0 1-45.312-19.52z m408.64 300.16l-0.992-4.192a89.184 89.184 0 0 1-1.536-7.616 54.4 54.4 0 0 1-0.224-13.184 32.288 32.288 0 0 1 18.624-6.4 22.4 22.4 0 1 1-13.696 41.92 164.32 164.32 0 0 0-2.048-9.92z m-249.024-77.408a215.616 215.616 0 0 0 72.608 12.8 55.936 55.936 0 0 1-3.584 19.2 39.456 39.456 0 0 0-1.312 9.6 135.584 135.584 0 0 1-67.2-28.224 9.024 9.024 0 0 1-0.512-13.216zM627.488 819.2a70.976 70.976 0 0 1-15.2-6.08 104.32 104.32 0 0 1-15.52-10.304c0.352-1.376 2.528-0.768 2.624-2.432a53.312 53.312 0 0 0 6.016 2.24 61.76 61.76 0 0 0 12.544 2.432 86.56 86.56 0 0 0 12.992 0.128c24.288-1.472 50.112-11.456 72.064-13.408-13.856 9.056-25.6 20.352-38.976 30.016a201.28 201.28 0 0 1-10.464 0.288 97.664 97.664 0 0 1-26.08-2.72z m-59.904 118.592a154.688 154.688 0 0 1-58.656 17.888c-5.056-1.184-6.4-6.4-8.096-12.32a87.104 87.104 0 0 0-2.848-8.544 210.72 210.72 0 0 1-17.408-60.8c0-2.816-0.288-5.824-0.416-8.96-1.248-30.208-0.992-71.2 28.48-65.568a290.464 290.464 0 0 1 77.056 28.192c6.208 3.392 11.104 7.2 16.8 10.304a50.72 50.72 0 0 0 9.408 4.064 50.08 50.08 0 0 0 5.664 1.408 60.256 60.256 0 0 0 6.4 0.864c0 2.496-0.192 5.024-0.288 7.552a105.12 105.12 0 0 1-28.992 8.992 49.76 49.76 0 0 0-9.312 3.392 112 112 0 0 1 11.872 1.152 97.248 97.248 0 0 1 29.312 9.28v2.016l-0.672 16.864a672.224 672.224 0 0 1-58.304 44.384z m135.84-49.152q-5.248-1.248-10.304-2.688a275.776 275.776 0 0 1 1.12-28.8 22.4 22.4 0 0 1 6.4-3.04 134.688 134.688 0 0 1 24.224-3.2 46.816 46.816 0 0 0-7.776-2.944 58.976 58.976 0 0 0-4.256-1.024 56.352 56.352 0 0 0-8.832-1.216 47.2 47.2 0 0 0-13.024 1.216 54.208 54.208 0 0 0-5.6-17.856l1.824-0.736c19.488-8.576 61.376-48.928 85.28-34.976a36 36 0 0 1 11.136 20.864 225.824 225.824 0 0 1 6.4 44.096 94.816 94.816 0 0 1-2.336 27.84 34.592 34.592 0 0 1-5.504 12.192 388.416 388.416 0 0 1-78.752-9.6z" fill="#231F20" p-id="20391"></path><path d="M560.96 603.584c-19.712-9.6-33.792-4.32-36.352-0.896-4.864 6.4 5.216 41.792 5.216 41.792l9.6 1.952c-1.824-38.944 21.536-42.848 21.536-42.848z" fill="#F7E4CD" p-id="20392"></path><path d="M684.576 926.752a10.688 10.688 0 0 0-10.656 10.208h21.312a10.688 10.688 0 0 0-10.656-10.208z" fill="#1D1919" p-id="20393"></path><path d="M500.544 951.84a4.896 4.896 0 0 0-4.896-4.896H491.2v5.664a4.896 4.896 0 0 1-4.896 4.896H154.688a4.896 4.896 0 0 1-4.896-4.896V960h350.752z m360.832 5.664h-272a4.896 4.896 0 0 1-4.896-4.896v-5.664h-24.96a4.896 4.896 0 0 0-4.896 4.896V960h311.584v-7.392a4.896 4.896 0 0 1-4.832 4.896z" fill="#231F20" p-id="20394"></path><path d="M154.688 957.504H486.4a4.896 4.896 0 0 0 4.896-4.896v-10.72a4.896 4.896 0 0 0-4.896-4.896H154.688a4.896 4.896 0 0 0-4.896 4.896v10.72a4.896 4.896 0 0 0 4.896 4.896z m429.824-4.896a4.896 4.896 0 0 0 4.896 4.896h272a4.896 4.896 0 0 0 4.896-4.896v-10.72a4.8 4.8 0 0 0-2.304-4.064 4.768 4.768 0 0 0-2.592-0.832h-272a4.896 4.896 0 0 0-4.896 4.896v10.72z" fill="#231F20" p-id="20395"></path></svg>