<svg t="1731575675649" class="icon" viewBox="0 0 1024 1024" version="1.1" xmlns="http://www.w3.org/2000/svg" p-id="8658" width="200" height="200"><path d="M527.27 654.39V474.07a91.372 91.372 0 0 1 67.135-31.023 85.313 85.313 0 0 1 19.631 1.696V374.7a119.002 119.002 0 0 0-86.767 43.384v-36.598h-72.71v272.906z" fill="#29B473" p-id="8659"></path><path d="M63.621 246.73v518.18L512 1024l448.379-259.09V273.875l-110.035 63.5V701.41L512 896.757 173.656 701.41V310.472l317.258-183.23V0L63.621 246.73z" fill="#1C1F2A" p-id="8660"></path><path d="M534.782 0v127.243l297.87 172.08 110.034-63.5L534.782 0z" fill="#29B473" p-id="8661"></path></svg>