<svg t="1731573445728" class="icon" viewBox="0 0 1024 1024" version="1.1" xmlns="http://www.w3.org/2000/svg" p-id="13295" width="200" height="200"><path d="M810.666667 128a85.333333 85.333333 0 0 1 85.333333 85.333333v597.333334a85.333333 85.333333 0 0 1-85.333333 85.333333H213.333333a85.333333 85.333333 0 0 1-85.333333-85.333333V213.333333a85.333333 85.333333 0 0 1 85.333333-85.333333h597.333334zM201.344 266.666667H192v52.736h9.344c271.701333 0 492.8 218.581333 492.8 487.253333v9.344H746.666667v-9.386667c0-297.728-244.650667-539.946667-545.322667-539.946666z m206.336-42.666667L394.666667 269.312l9.002666 2.56c171.562667 49.322667 308.309333 190.208 348.373334 358.997333l2.133333 9.130667 45.824-10.922667-2.133333-9.130666c-43.946667-185.045333-193.578667-339.456-381.184-393.386667l-9.002667-2.56z m200.277333-16l-21.290666 35.2 7.936 4.864c85.674667 52.352 155.434667 130.56 196.266666 220.16l1.408 2.986667 6.869334 3.456 32.853333-15.189334-3.84-8.490666c-44.288-96.981333-119.68-181.589333-212.266667-238.165334l-7.936-4.821333z" fill="#4C9BD6" p-id="13296"></path></svg>